<svg id="Layer_1" data-name="Layer 1" xmlns="http://www.w3.org/2000/svg" viewBox="0 0 347.97 465.09"><title>monogram</title><path d="M97.44,113.24h91.3V318.8q0,64.45-30.51,102.54-38.82,48.35-106.94,48.34-20.74,0-46.87-8.79V374.71q22.95,10.74,38.82,10.74,54.2,0,54.2-79.83Zm43-108.65a44.7,44.7,0,0,1,32.1,13.07q13.55,13.05,13.55,30.88,0,19-12.82,31.25T140.41,92q-20,0-32.84-12.21T94.75,48.54q0-17.82,13.55-30.88A44.69,44.69,0,0,1,140.41,4.59Z" transform="translate(-4.42 -4.59)"/><path d="M315.64,235.78q-36.74-37.11-88.25-37.11-8.31,0-24.42,1.47V300.72q12.94-8.79,22.95-8.79a31.94,31.94,0,0,1,23.93,10.14q9.77,10.13,9.76,25a33.05,33.05,0,0,1-10.37,24.54A34.85,34.85,0,0,1,224,361.76q-15.28,0-23.87-9.3a124.5,124.5,0,0,1-36.38,84.39q3,1.57,6.17,3a126.33,126.33,0,0,0,53.35,12q54.43,0,91.79-36.63t37.36-90.08Q352.39,272.9,315.64,235.78Z" transform="translate(-4.42 -4.59)"/></svg>